<?xml version="1.0" standalone="no"?>
<!DOCTYPE svg PUBLIC "-//W3C//DTD SVG 20010904//EN"
 "http://www.w3.org/TR/2001/REC-SVG-20010904/DTD/svg10.dtd">
<svg version="1.0" xmlns="http://www.w3.org/2000/svg"
 width="512.000000pt" height="512.000000pt" viewBox="0 0 512.000000 512.000000"
 preserveAspectRatio="xMidYMid meet">

<g transform="translate(0.000000,512.000000) scale(0.100000,-0.100000)"
fill="#000000" stroke="none">
<path d="M224 4359 c-18 -5 -53 -24 -80 -41 -174 -117 -192 -357 -38 -497 104
-95 -151 -86 2454 -86 2605 0 2350 -9 2454 86 74 67 100 129 101 234 0 68 -4
89 -28 137 -30 62 -83 115 -149 150 l-43 23 -2320 2 c-1375 1 -2333 -2 -2351
-8z"/>
<path d="M245 2871 c-90 -22 -173 -90 -215 -176 -34 -69 -35 -198 -2 -265 34
-71 75 -113 144 -151 l63 -34 2325 0 2325 0 51 27 c76 40 107 70 145 140 31
58 34 70 34 148 0 78 -3 90 -34 148 -37 69 -79 109 -151 144 l-45 23 -2305 2
c-1268 0 -2318 -2 -2335 -6z"/>
<path d="M244 1376 c-93 -23 -175 -92 -216 -181 -35 -76 -33 -191 5 -267 30
-62 83 -115 149 -150 l43 -23 2335 0 2335 0 43 23 c66 35 119 88 149 150 38
76 40 191 5 267 -43 93 -130 163 -230 184 -81 17 -4549 14 -4618 -3z"/>
</g>
</svg>
