<!--?xml version="1.0" standalone="no"?-->
              <svg id="sw-js-blob-svg" viewBox="0 0 100 100" xmlns="http://www.w3.org/2000/svg" version="1.1">
                    <defs> 
                        <linearGradient id="sw-gradient" x1="0" x2="1" y1="1" y2="0">
                            <stop id="stop1" stop-color="rgba(107, 16, 16, 1)" offset="0%"></stop>
                            <stop id="stop2" stop-color="rgba(107, 16, 16, 1)" offset="100%"></stop>
                        </linearGradient>
                    </defs>
                <path fill="url(#sw-gradient)" d="M19.1,-30.7C24.8,-29.8,29.7,-24.8,33.3,-19C36.9,-13.3,39.3,-6.6,40.3,0.6C41.3,7.8,40.8,15.5,37.4,21.7C34,27.9,27.7,32.5,21,35C14.3,37.4,7.2,37.6,0,37.5C-7.1,37.5,-14.1,37.1,-18.5,33.3C-22.9,29.6,-24.7,22.4,-25.2,16.3C-25.8,10.2,-25.1,5.1,-25.9,-0.5C-26.8,-6,-29.1,-12.1,-28.3,-17.7C-27.4,-23.3,-23.5,-28.6,-18.2,-29.8C-13,-31,-6.5,-28.3,0.1,-28.4C6.7,-28.6,13.3,-31.6,19.1,-30.7Z" width="100%" height="100%" transform="translate(50 50)" stroke-width="0" style="transition: all 0.3s ease 0s;" stroke="url(#sw-gradient)"></path>
              </svg>