<!--?xml version="1.0" standalone="no"?-->
              <svg id="sw-js-blob-svg" viewBox="0 0 100 100" xmlns="http://www.w3.org/2000/svg" version="1.1">
                    <defs> 
                        <linearGradient id="sw-gradient" x1="0" x2="1" y1="1" y2="0">
                            <stop id="stop1" stop-color="rgba(107, 16, 16, 1)" offset="0%"></stop>
                            <stop id="stop2" stop-color="rgba(107, 16, 16, 1)" offset="100%"></stop>
                        </linearGradient>
                    </defs>
                <path fill="url(#sw-gradient)" d="M28.7,-33C35.9,-28,39.8,-17.9,41.6,-7.4C43.3,3.1,43,13.9,37.9,21C32.7,28.1,22.7,31.6,13.1,34.3C3.5,37,-5.7,39,-12.2,35.7C-18.8,32.4,-22.7,23.9,-28,15.7C-33.3,7.5,-40,-0.4,-40.6,-8.9C-41.1,-17.4,-35.5,-26.5,-27.7,-31.3C-19.9,-36.1,-10,-36.6,0.4,-37.1C10.7,-37.5,21.4,-37.9,28.7,-33Z" width="100%" height="100%" transform="translate(50 50)" stroke-width="0" style="transition: all 0.3s ease 0s;" stroke="url(#sw-gradient)"></path>
              </svg>